<svg width="112" height="32" viewBox="0 0 112 32" fill="none" xmlns="http://www.w3.org/2000/svg">
<g clip-path="url(#clip0_13_767)">
<path d="M81.3287 8.43413C81.3287 7.69751 81.2438 7.31317 80.3792 7.56779C79.8901 7.70328 79.3827 7.76111 78.8757 7.73915C78.1984 7.71993 78.0415 7.99696 78.0463 8.63911C78.0735 12.4023 78.0592 16.1655 78.0592 19.9271C78.0592 22.3099 77.9567 22.446 75.6206 23.0882C75.3884 23.1506 75.1547 23.2067 74.9209 23.2483C72.5848 23.7159 70.9485 22.8464 70.4601 20.8687C70.3118 20.2181 70.2446 19.5517 70.26 18.8846C70.26 15.336 70.2504 11.7858 70.2744 8.23717C70.2744 7.58541 70.1143 7.38843 69.4498 7.54377C68.8233 7.6705 68.1867 7.74125 67.5476 7.75516C67.1265 7.77757 67.0049 7.95212 67.0065 8.34925C67.0193 12.5929 66.9632 16.8365 67.0481 21.0785C67.0977 23.6278 68.622 25.5623 70.7211 26.0331C72.6633 26.4719 74.4037 25.9786 76.0049 24.8545C76.7286 24.3469 77.3258 23.7015 78.0543 22.9409C78.0543 23.804 78.0832 24.4974 78.0431 25.1828C78.0143 25.6888 78.216 25.8393 78.6836 25.8233C79.27 25.7832 79.8584 25.7832 80.4448 25.8233C81.1702 25.8938 81.3255 25.6023 81.3223 24.9153C81.3031 19.4248 81.3052 13.9311 81.3287 8.43413Z" fill="black"/>
<path d="M61.8954 12.9281C61.8954 8.87666 61.8953 4.82524 61.9049 0.773792C61.9049 0.171681 61.8073 -0.134196 61.1044 0.0563662C60.6125 0.17462 60.1098 0.2417 59.6041 0.256536C58.826 0.302976 58.573 0.640878 58.5762 1.45277C58.6098 9.23699 58.597 17.0196 58.597 24.8038C58.6026 24.8832 58.6026 24.963 58.597 25.0424C58.5217 25.6173 58.7283 25.8815 59.3463 25.8319C59.9046 25.7822 60.4661 25.7822 61.0243 25.8319C61.7512 25.9056 61.9146 25.6045 61.9098 24.9207C61.8809 20.9253 61.8954 16.9267 61.8954 12.9281Z" fill="black"/>
<path d="M52.633 9.82558C49.9607 6.51717 45.4999 6.4323 42.7059 9.63182C42.5954 9.75673 42.5554 9.98572 42.2575 9.97131C42.2575 9.30675 42.2431 8.64698 42.2575 7.98722C42.2704 7.54525 42.0974 7.44116 41.6763 7.50681C40.9946 7.62738 40.3066 7.70919 39.6157 7.75183C39.1193 7.77585 38.9896 7.97763 38.9912 8.44202C39.0008 16.073 39.0008 23.7062 38.9912 31.3415C38.9912 31.8123 39.1193 32.0253 39.6221 31.9996C40.262 31.9636 40.9035 31.9636 41.5434 31.9996C42.1086 32.0349 42.2752 31.8251 42.2672 31.2694C42.2383 29.3766 42.2559 27.4838 42.2559 25.4901C42.6738 25.6166 43.0021 25.7175 43.3319 25.8104C47.5141 27.0258 51.4978 25.4196 53.4063 21.7349C54.6296 19.3729 54.8297 16.8476 54.4935 14.263C54.3022 12.6385 53.6574 11.1007 52.633 9.82558ZM50.4986 21.1632C49.1713 24.382 45.4454 25.2467 42.8228 23.0368C42.4337 22.7085 42.2255 22.3643 42.2383 21.8134C42.28 20.1608 42.2543 18.5066 42.2543 16.8492C42.2543 15.1918 42.28 13.5408 42.24 11.8849C42.2255 11.3501 42.4257 11.0715 42.8612 10.8168C45.9034 9.04573 49.3042 10.1587 50.5579 13.4351C51.5362 15.9924 51.5442 18.6203 50.4986 21.1632Z" fill="black"/>
<path d="M19.39 1.34558C19.43 0.544902 19.1466 0.384766 18.3989 0.384766C12.7949 0.416793 7.19087 0.402378 1.58687 0.402378C-0.0510984 0.402378 -0.0302618 0.402388 0.00816565 2.03418C0.0209748 2.56262 0.201888 2.70673 0.712653 2.70033C2.84698 2.67631 4.9829 2.71796 7.11723 2.67472C7.79451 2.66031 7.94821 2.86527 7.94661 3.52022C7.92099 10.0041 7.93062 16.4913 7.93062 22.9736C7.93062 23.7198 7.95303 24.4692 7.92261 25.2155C7.90499 25.6735 8.08272 25.832 8.52143 25.8192C9.21495 25.7866 9.90968 25.7892 10.6029 25.8272C11.2818 25.8752 11.522 25.6783 11.514 24.9464C11.4739 21.3978 11.4964 17.8476 11.4964 14.299C11.4964 10.6959 11.5092 7.09287 11.4852 3.49141C11.4852 2.8909 11.6052 2.65871 12.2665 2.67472C14.1879 2.72276 16.1092 2.69233 18.0306 2.69233C19.3756 2.69874 19.3291 2.69553 19.39 1.34558Z" fill="black"/>
<path d="M111.875 11.8305C111.715 8.98965 109.737 7.2778 106.894 7.28901C104.692 7.29861 102.973 8.32349 101.506 9.872C101.227 10.1683 100.958 10.4709 100.651 10.8056C99.6486 8.33629 98.2668 7.32903 96.0076 7.28259C93.9805 7.24256 92.3522 8.0993 90.9335 9.45405C90.6133 9.75671 90.3475 10.1106 90.0561 10.4405L89.8512 10.3236C89.8512 9.66544 89.8191 9.00567 89.8512 8.35071C89.8832 7.69575 89.7839 7.32425 88.9834 7.55965C88.4964 7.70313 87.9884 7.76216 87.4815 7.73419C86.6345 7.68455 86.5592 8.12492 86.5624 8.81351C86.5848 13.6961 86.5624 18.5818 86.58 23.4612C86.58 24.2042 86.2598 25.1602 86.7129 25.6342C87.2061 26.1498 88.186 25.7351 88.9449 25.828C89.7039 25.9208 89.8624 25.5878 89.8576 24.88C89.8272 20.6652 89.8576 16.4488 89.8288 12.2292C89.8288 11.6319 90.0257 11.3132 90.5493 11.0618C91.6753 10.5078 92.8995 10.1813 94.1519 10.101C96.0012 9.99532 97.0451 10.8184 97.4646 12.6327C97.6487 13.4334 97.6247 14.2229 97.6247 15.0188C97.6375 18.3272 97.6439 21.6372 97.6247 24.9472C97.6247 25.5878 97.7672 25.8872 98.4605 25.8264C99.0187 25.7759 99.5803 25.7759 100.139 25.8264C100.798 25.8872 100.939 25.5974 100.939 24.9985C100.901 20.7564 100.897 16.5112 100.861 12.2724C100.861 11.8545 100.944 11.5887 101.322 11.3645C102.508 10.6382 103.851 10.2061 105.238 10.1042C106.947 9.9921 108.093 10.8648 108.5 12.5271C108.687 13.2877 108.687 14.0596 108.689 14.8314C108.689 18.2199 108.705 21.6084 108.679 24.9969C108.679 25.6102 108.839 25.8728 109.48 25.8264C110.12 25.7799 110.761 25.8023 111.401 25.8183C111.8 25.828 111.979 25.6935 111.976 25.2691C111.929 20.7933 112.117 16.3079 111.875 11.8305Z" fill="black"/>
<path d="M25.7575 7.28809C23.9242 7.32332 21.7738 8.29374 20.1759 10.3307C18.064 13.0146 17.5324 16.0956 18.1969 19.3848C18.9638 23.1784 21.9163 25.7902 25.9768 26.1697C29.2047 26.4724 32.431 24.8166 34.101 21.2359C34.9865 19.3351 35.2491 17.3398 35.0617 15.2453C34.6775 10.715 31.0172 7.28969 25.7575 7.28809ZM30.665 21.8044C29.1711 24.7734 25.3108 25.0936 23.3654 22.4001C22.4719 21.1607 22.0684 19.7307 21.8427 18.2366C21.5737 16.4623 21.484 14.6864 21.9275 12.9217C22.6256 10.1513 25.0178 8.64284 27.5091 9.4131C28.7901 9.80863 29.605 10.731 30.2038 11.8792C31.1805 13.748 31.3599 15.7865 31.4752 17.8667C31.4143 19.215 31.2926 20.5634 30.665 21.8044Z" fill="black"/>
</g>
<defs>
<clipPath id="clip0_13_767">
<rect width="112" height="32" fill="white"/>
</clipPath>
</defs>
</svg>
